<?xml version="1.0" standalone="no"?>
<!DOCTYPE svg PUBLIC "-//W3C//DTD SVG 20010904//EN"
 "http://www.w3.org/TR/2001/REC-SVG-20010904/DTD/svg10.dtd">
<svg version="1.0" xmlns="http://www.w3.org/2000/svg"
 width="1134.000000pt" height="1134.000000pt" viewBox="0 0 1134.000000 1134.000000"
 preserveAspectRatio="xMidYMid meet">
<metadata>
Created by potrace 1.14, written by Peter Selinger 2001-2017
</metadata>
<g transform="translate(0.000000,1134.000000) scale(0.100000,-0.100000)"
fill="#000000" stroke="none">
<path d="M5409 9136 c-2 -2 -42 -6 -89 -10 -47 -4 -103 -9 -125 -11 -22 -2
-65 -7 -95 -10 -30 -3 -73 -10 -95 -15 -22 -5 -56 -12 -75 -15 -108 -18 -388
-94 -468 -127 -15 -6 -33 -12 -40 -14 -45 -9 -231 -89 -377 -161 -400 -199
-685 -407 -996 -728 -367 -380 -634 -821 -817 -1350 -31 -89 -95 -327 -106
-395 -3 -19 -8 -46 -10 -60 -5 -25 -8 -48 -27 -165 -5 -33 -13 -80 -17 -105
-16 -100 -7 -765 12 -856 2 -12 7 -39 10 -60 6 -34 17 -100 33 -184 2 -14 15
-70 29 -125 14 -55 26 -107 29 -116 47 -202 194 -555 337 -807 247 -437 612
-839 1038 -1144 342 -245 797 -454 1200 -553 38 -9 107 -24 130 -28 76 -14
150 -27 185 -32 23 -3 50 -7 60 -9 20 -4 107 -14 189 -22 59 -6 512 -5 571 1
91 9 150 15 175 19 14 3 48 7 75 11 90 11 309 54 360 70 28 9 61 18 75 21 127
26 493 172 670 267 52 28 104 55 115 61 145 76 473 310 605 431 252 232 524
548 640 746 8 14 40 68 72 120 129 216 315 640 342 781 2 7 8 33 15 58 7 25
15 53 17 63 2 10 6 27 9 37 3 10 8 27 10 37 2 10 10 47 19 83 22 95 55 295 63
386 19 210 5 765 -23 884 -3 14 -6 32 -6 40 -1 25 -46 239 -68 325 -112 425
-284 793 -546 1165 -117 168 -199 265 -349 417 -157 159 -295 281 -429 382
-97 72 -272 191 -281 191 -3 0 -24 12 -47 27 -113 71 -541 269 -623 288 -5 1
-17 5 -25 8 -78 32 -449 125 -565 142 -23 3 -50 7 -60 9 -11 2 -49 7 -85 11
-36 4 -78 9 -95 12 -35 5 -540 14 -546 9z m406 -240 c55 -3 111 -8 125 -10 14
-3 55 -7 92 -11 71 -7 93 -10 173 -25 28 -5 61 -12 75 -14 29 -6 42 -9 135
-31 39 -9 77 -18 85 -20 40 -9 227 -72 325 -110 193 -74 481 -225 618 -321 26
-19 51 -34 56 -34 5 0 11 -4 13 -8 2 -5 35 -31 74 -58 136 -94 293 -237 484
-440 221 -236 390 -487 545 -809 112 -233 220 -559 259 -785 3 -19 8 -46 11
-60 3 -13 7 -42 10 -65 3 -22 11 -69 18 -105 21 -116 15 -737 -9 -876 -52
-313 -125 -577 -222 -804 -62 -148 -194 -402 -243 -472 -10 -14 -19 -29 -19
-32 0 -5 -94 -141 -149 -216 -116 -158 -324 -381 -486 -522 -96 -84 -372 -288
-388 -288 -3 0 -31 -18 -63 -39 -64 -43 -317 -172 -429 -219 -93 -39 -339
-126 -355 -125 -3 0 -16 -4 -30 -9 -14 -5 -36 -12 -50 -14 -14 -3 -68 -16
-120 -29 -52 -13 -113 -26 -135 -29 -22 -4 -83 -13 -135 -22 -105 -17 -275
-25 -540 -26 -150 -1 -263 7 -395 28 -16 3 -46 7 -65 9 -19 2 -46 7 -60 10
-14 2 -47 9 -75 15 -198 38 -446 116 -639 200 -933 407 -1605 1173 -1891 2155
-27 93 -95 422 -100 485 -28 353 -24 660 11 865 3 17 7 46 9 65 2 19 8 55 13
80 6 25 13 62 16 84 7 40 50 219 67 271 46 146 67 206 111 310 177 425 402
757 743 1100 250 252 480 417 837 602 222 115 536 230 728 267 14 3 68 14 120
25 98 20 125 25 224 37 85 10 108 12 231 19 61 4 111 8 112 9 4 3 179 -2 278
-8z"/>
<path d="M5137 8236 c-58 -16 -94 -41 -125 -86 -41 -62 -46 -99 -45 -425 0
-301 0 -312 23 -362 43 -99 131 -152 234 -139 102 12 175 79 196 181 13 60 16
602 4 651 -34 141 -153 216 -287 180z m83 -201 c3 -17 6 -162 5 -322 -1 -299
-4 -323 -39 -310 -13 5 -15 48 -16 311 0 168 2 317 6 331 9 35 37 28 44 -10z"/>
<path d="M5680 8240 c-99 -18 -160 -88 -178 -205 -5 -31 -8 -183 -8 -338 2
-280 2 -282 28 -337 47 -101 96 -133 203 -134 53 -1 80 4 110 20 55 29 101 92
115 158 12 60 16 564 5 640 -21 135 -141 220 -275 196z m70 -205 c5 -24 6
-525 1 -612 -1 -15 -7 -23 -20 -23 -11 0 -21 9 -25 23 -8 29 -8 595 0 625 9
32 37 24 44 -13z"/>
<path d="M6630 8240 c-78 -14 -134 -62 -154 -131 -20 -66 -20 -204 0 -269 16
-55 62 -109 175 -206 59 -51 72 -77 72 -150 0 -75 -16 -103 -46 -82 -14 11
-17 30 -18 106 l-1 93 -96 -3 -97 -3 3 -95 c1 -52 7 -111 13 -130 28 -87 101
-140 201 -145 116 -7 205 51 229 147 15 66 7 260 -13 309 -21 47 -66 98 -154
170 -77 63 -92 89 -88 157 2 49 15 68 38 59 16 -6 20 -32 16 -109 l-2 -38 100
0 100 0 -3 78 c-2 43 -8 97 -14 119 -24 89 -142 145 -261 123z"/>
<path d="M4450 7733 l0 -493 103 0 102 0 0 220 c0 142 3 220 10 220 5 0 17 -5
25 -10 15 -9 16 -31 20 -412 0 -16 11 -18 95 -18 l96 0 -1 202 c-2 223 -7 248
-60 290 l-32 25 26 7 c47 12 61 56 61 196 0 115 -2 129 -25 169 -29 51 -63 79
-105 87 -17 3 -94 7 -172 8 l-143 3 0 -494z m240 307 c11 -7 15 -30 15 -94 0
-46 -2 -87 -5 -89 -3 -3 -14 -7 -25 -9 -18 -3 -20 3 -20 87 -2 117 2 126 35
105z"/>
<path d="M6001 8220 c-4 -3 -7 -48 -7 -100 l1 -95 58 -3 57 -3 0 -389 0 -390
105 0 105 0 0 390 0 390 60 0 59 0 -2 103 -2 102 -213 0 c-118 0 -217 -2 -221
-5z"/>
<path d="M3062 7594 c-23 -16 -66 -89 -60 -103 5 -13 127 -115 423 -355 154
-125 287 -233 296 -240 8 -7 56 -45 105 -84 50 -39 91 -77 91 -84 0 -7 2 -17
3 -23 2 -5 -5 -28 -15 -50 -17 -38 -19 -70 -17 -235 1 -25 0 -61 0 -80 -1 -19
9 -79 21 -133 20 -84 26 -125 30 -209 1 -10 11 -28 24 -40 19 -20 51 -107 42
-116 -3 -3 -87 42 -120 64 -11 8 -34 14 -52 14 -29 0 -38 -7 -63 -47 -45 -71
-40 -111 34 -263 22 -47 36 -90 36 -113 0 -60 26 -101 134 -214 56 -59 114
-130 131 -162 78 -145 122 -185 269 -242 181 -71 329 -36 393 91 15 30 38 70
50 89 35 52 30 87 -32 203 -40 77 -52 107 -43 116 8 8 5 21 -10 49 -12 21 -41
74 -64 118 l-42 80 -2 230 c-1 195 1 233 14 248 31 35 122 -4 200 -85 l51 -53
-26 -14 c-40 -20 -61 -43 -76 -81 -16 -40 -15 -66 5 -135 8 -27 13 -70 11 -95
-9 -169 0 -215 55 -289 20 -27 44 -63 53 -79 14 -24 23 -28 65 -31 55 -2 123
-40 125 -69 1 -9 3 -26 5 -37 2 -11 6 -54 10 -96 7 -86 10 -80 -81 -154 -28
-21 -52 -42 -55 -45 -3 -3 -52 -43 -110 -90 -58 -47 -116 -95 -130 -106 -14
-12 -112 -94 -219 -182 -167 -138 -196 -158 -208 -146 -20 20 -36 18 -69 -8
-57 -45 -64 -53 -64 -73 -1 -13 -25 -38 -68 -70 -36 -27 -201 -160 -367 -294
-165 -134 -319 -259 -343 -278 -23 -19 -66 -56 -94 -82 l-51 -47 22 -41 c22
-45 55 -73 83 -73 14 0 335 250 501 390 12 10 111 91 219 179 154 125 204 161
226 161 29 0 98 46 116 77 5 9 4 25 -3 40 -6 13 -11 26 -11 28 0 3 591 487
657 538 9 6 14 4 18 -7 3 -9 8 -24 12 -33 9 -25 5 -41 -19 -88 -40 -77 -43
-135 -9 -135 14 0 20 17 31 95 l14 95 32 -31 c18 -17 35 -45 38 -63 6 -31 132
-176 153 -176 17 0 31 -69 28 -138 -2 -37 -7 -109 -11 -159 -12 -153 12 -189
173 -267 24 -12 38 -13 62 -5 17 6 31 14 31 17 0 4 7 16 15 26 14 19 15 18 36
-8 31 -39 63 -49 102 -31 44 20 118 64 139 82 38 34 51 123 34 233 -22 135 -8
250 29 250 8 0 15 4 15 9 0 5 27 35 59 68 41 40 62 71 70 99 11 40 50 89 52
66 1 -7 2 -15 3 -19 10 -41 19 -101 17 -115 -3 -22 34 -25 42 -4 8 19 -6 74
-30 120 l-20 40 20 35 c11 20 22 37 23 39 1 2 62 -45 135 -105 73 -59 160
-130 193 -157 345 -280 321 -254 299 -312 -2 -6 15 -30 39 -52 33 -32 51 -42
76 -42 25 0 48 -12 91 -47 694 -569 839 -683 865 -683 16 0 35 13 55 36 39 48
46 79 24 101 -28 28 -478 394 -760 620 -90 71 -143 120 -143 131 0 16 -46 61
-85 84 -7 4 -27 3 -44 -3 -27 -10 -34 -8 -58 15 -35 32 -238 200 -506 418
-114 93 -212 179 -218 190 -11 20 -10 52 7 183 7 52 37 91 79 100 18 4 89 14
106 15 4 0 9 10 13 23 3 12 20 40 39 62 61 73 70 105 69 245 -1 89 3 139 14
172 27 81 5 148 -61 191 -19 12 -35 25 -35 28 0 3 26 31 59 62 45 43 71 59
116 73 84 24 84 23 85 -205 1 -102 1 -202 1 -221 1 -40 -29 -113 -89 -214 -32
-55 -38 -73 -29 -86 8 -14 -1 -36 -42 -111 -56 -100 -70 -151 -49 -185 7 -12
30 -53 50 -92 81 -152 209 -187 408 -111 145 55 188 92 256 222 23 45 68 102
127 164 110 113 147 165 148 207 1 53 8 73 51 164 36 73 43 97 43 148 0 51 -4
66 -28 97 -37 49 -69 49 -154 -3 -37 -22 -70 -40 -75 -40 -4 0 -3 12 2 26 6
14 10 36 10 49 0 14 8 29 19 34 24 13 41 62 41 117 0 23 9 82 21 131 12 48 21
115 21 148 0 33 0 69 1 80 6 105 -1 204 -16 234 -14 28 -15 37 -5 46 7 7 108
88 223 181 252 202 334 269 483 392 103 85 113 97 107 120 -8 33 -41 79 -65
92 -38 20 -6 44 -676 -502 l-191 -155 -49 44 c-27 24 -77 65 -112 90 l-63 45
-162 -4 c-162 -5 -201 -13 -220 -45 -8 -13 -11 -13 -25 0 -10 8 -28 13 -42 11
-120 -14 -162 -23 -204 -42 -52 -24 -75 -46 -76 -74 0 -13 -8 -18 -30 -18 -37
0 -62 -12 -164 -80 -49 -32 -84 -49 -95 -45 -11 3 -34 -7 -61 -27 -24 -18 -49
-37 -56 -43 -9 -7 -35 -4 -81 8 -61 17 -152 29 -193 28 -65 -3 -113 -11 -159
-25 -66 -19 -85 -20 -103 -3 -41 40 -86 66 -105 61 -14 -4 -44 10 -94 44 -95
63 -132 82 -163 82 -20 0 -29 8 -40 34 -16 37 -79 72 -146 82 -31 4 -70 10
-120 20 -8 2 -27 -3 -42 -11 -16 -7 -28 -9 -28 -4 0 4 -15 16 -32 25 -26 14
-69 18 -194 22 -181 5 -165 10 -280 -85 -65 -54 -106 -59 -148 -19 -17 15
-186 154 -376 308 -190 154 -354 288 -365 297 -59 49 -134 101 -146 101 -8 0
-25 -7 -37 -16z m163 -173 c77 -64 149 -123 160 -132 11 -10 67 -56 125 -104
58 -47 114 -94 125 -103 11 -9 56 -46 100 -81 44 -35 93 -77 108 -93 34 -34
55 -27 31 10 -19 30 -18 29 59 -32 26 -21 47 -41 47 -45 -1 -3 -9 -17 -20 -29
l-20 -24 -27 20 c-23 16 -643 518 -797 645 -21 18 -45 36 -52 40 -14 8 -19 39
-8 50 9 9 14 6 169 -122z m4935 -11 c0 -10 -17 -32 -37 -47 -21 -15 -45 -35
-53 -43 -8 -8 -80 -67 -160 -131 -80 -64 -237 -191 -350 -283 -113 -91 -207
-166 -210 -166 -3 1 -13 12 -24 26 -18 26 -18 26 3 48 l22 21 -12 -28 c-17
-37 -2 -48 24 -16 12 14 83 74 157 134 74 60 144 117 155 126 211 179 471 387
477 383 4 -3 8 -14 8 -24z m-3597 -480 c15 -7 27 -18 28 -24 4 -68 22 -87 45
-50 25 40 31 43 68 34 32 -8 179 -60 184 -65 2 -2 -18 -18 -44 -36 -47 -35
-72 -75 -56 -91 5 -5 37 6 77 28 104 57 182 49 262 -26 l33 -31 -20 -37 c-18
-32 -18 -37 -5 -40 9 -2 26 3 39 11 52 34 164 -19 220 -105 16 -25 16 -27 -5
-47 -13 -12 -25 -21 -28 -22 -57 -8 -68 -15 -91 -58 -11 -22 -29 -45 -39 -50
-20 -11 -104 -24 -157 -25 -41 0 -187 36 -196 49 -22 30 -2 67 65 116 29 22
36 49 12 49 -19 0 -91 -36 -100 -50 -3 -5 -19 -7 -35 -3 -29 5 -44 -11 -19
-19 8 -3 3 -17 -12 -41 -19 -28 -28 -35 -44 -30 -36 12 -57 8 -69 -10 -9 -15
-6 -22 22 -45 18 -15 45 -37 60 -50 l27 -23 -25 7 c-14 4 -74 17 -133 28 -94
19 -113 26 -141 54 -38 37 -57 40 -94 12 -22 -16 -48 -21 -131 -25 -95 -4
-135 -14 -119 -31 4 -3 21 -7 40 -8 18 -2 36 -4 41 -5 4 0 -6 -19 -23 -42 -38
-52 -74 -149 -61 -162 14 -14 29 -1 51 43 25 49 49 62 114 62 40 -1 55 -6 68
-22 18 -23 19 -24 42 -199 9 -63 20 -119 26 -125 7 -7 10 -5 11 4 1 27 9 64
15 69 9 9 53 -47 60 -75 4 -14 2 -35 -3 -47 -8 -17 -2 -37 29 -97 27 -51 41
-93 45 -134 l6 -58 -24 16 c-14 8 -38 36 -54 61 -37 59 -60 57 -60 -5 0 -25 4
-60 9 -77 6 -28 5 -32 -8 -27 -15 6 -18 1 -18 -31 0 -30 3 -34 53 -65 62 -38
83 -35 67 10 -5 17 -8 33 -5 36 2 3 29 -5 59 -17 51 -21 57 -27 94 -100 l40
-77 -45 39 c-62 55 -73 39 -33 -49 38 -81 38 -82 12 -112 -17 -19 -26 -22 -60
-16 -35 5 -41 3 -56 -19 -31 -47 -111 -27 -210 52 -95 75 -111 90 -171 159
-28 32 -78 87 -111 122 -33 35 -63 76 -67 90 -3 15 -29 72 -56 127 -27 56 -49
108 -49 118 0 24 -37 22 -45 -3 -4 -13 9 -52 38 -113 24 -50 53 -114 62 -142
17 -47 47 -95 78 -127 7 -7 31 -33 52 -58 28 -30 32 -38 14 -25 -15 11 -44 33
-65 49 -22 16 -60 52 -86 80 -38 41 -50 62 -58 106 -6 30 -18 73 -27 95 -67
173 -82 265 -42 265 44 0 257 -129 296 -179 7 -9 49 -68 93 -131 100 -145 119
-165 213 -220 60 -36 81 -55 102 -92 23 -43 58 -68 72 -54 10 9 -27 95 -54
127 -14 17 -58 52 -97 78 -75 51 -109 88 -219 235 -37 50 -83 107 -101 126
-68 74 -75 111 -50 263 7 42 0 46 -31 17 l-21 -20 -20 59 c-20 56 -23 117 -9
196 14 78 17 125 9 125 -14 0 -29 -13 -47 -40 l-17 -24 0 32 c0 22 5 32 15 32
22 0 18 24 -6 46 -18 17 -20 28 -17 94 6 125 69 226 198 313 25 17 65 47 90
68 25 20 52 39 60 41 31 10 245 0 273 -12z m2449 11 c10 0 35 -16 55 -34 21
-19 60 -49 88 -67 125 -85 202 -200 208 -313 3 -57 -13 -117 -33 -117 -5 0
-10 -7 -10 -15 0 -8 7 -15 15 -15 10 0 15 -10 15 -32 l0 -33 -20 33 c-37 60
-59 33 -40 -50 21 -96 20 -180 -2 -242 -21 -56 -21 -56 -40 -36 -28 30 -41 25
-34 -12 4 -18 9 -61 13 -96 6 -73 -14 -132 -59 -170 -14 -12 -58 -66 -97 -120
-96 -134 -173 -216 -237 -252 -29 -17 -66 -46 -81 -65 -31 -38 -69 -122 -59
-132 13 -13 56 18 69 49 17 39 32 53 114 102 80 48 115 83 192 197 35 52 79
113 98 137 54 66 252 192 304 192 34 0 32 -60 -7 -166 -35 -97 -47 -139 -66
-218 -9 -38 -89 -126 -168 -186 -65 -49 -64 -43 7 35 57 61 78 93 99 149 15
39 44 106 66 148 40 82 45 107 26 126 -14 14 -38 -2 -38 -24 0 -8 -16 -46 -35
-84 -20 -39 -45 -95 -56 -125 -14 -38 -42 -77 -88 -127 -38 -40 -92 -101 -122
-134 -81 -93 -200 -183 -267 -204 l-57 -18 -35 34 c-26 25 -39 31 -47 23 -17
-17 -54 -6 -76 22 l-19 27 36 73 c41 82 36 111 -11 68 -62 -56 -65 -53 -26 22
37 72 40 76 99 101 l61 25 -11 -38 c-5 -21 -7 -41 -4 -45 4 -3 34 9 67 26 45
24 61 38 61 54 0 30 -15 50 -31 41 -9 -6 -10 -3 -5 11 15 39 23 101 15 122
-12 32 -33 27 -56 -16 -26 -45 -69 -87 -77 -74 -6 10 0 72 10 107 3 11 22 51
41 88 21 43 31 73 25 80 -4 7 -7 18 -6 25 1 6 2 20 3 31 1 23 48 74 61 66 6
-3 10 -23 10 -43 0 -27 3 -33 12 -24 13 13 25 77 34 187 7 87 34 154 62 156
38 3 97 -3 114 -12 9 -5 29 -30 44 -55 28 -48 50 -53 47 -10 -2 31 -49 130
-69 147 -23 19 -16 36 14 37 47 0 52 2 52 17 0 9 -9 15 -22 16 -166 4 -199 9
-225 28 -35 29 -49 27 -94 -14 -22 -19 -47 -35 -57 -36 -31 -1 -76 -10 -157
-29 -43 -11 -81 -17 -83 -15 -2 2 19 19 47 37 56 37 71 62 48 85 -12 13 -21
13 -47 4 -34 -11 -50 -8 -50 13 0 16 -55 67 -107 100 -82 50 -117 20 -39 -34
47 -32 61 -57 52 -93 -4 -18 -20 -25 -87 -41 -102 -24 -118 -25 -204 -10 -46
8 -73 18 -80 29 -37 64 -53 80 -86 90 -43 12 -69 32 -69 52 0 23 89 111 123
122 58 19 82 19 114 -1 41 -24 51 -9 24 36 l-21 34 35 31 c46 40 84 59 131 67
33 5 52 -1 119 -35 44 -22 84 -36 88 -31 17 16 -5 52 -55 87 l-49 36 86 32
c133 50 140 51 165 9 18 -28 25 -32 36 -23 8 6 14 26 14 44 0 50 41 61 205 59
44 -1 88 -2 97 -3z m-1242 -361 c82 -16 84 -18 62 -76 -13 -36 -16 -58 -10
-81 8 -32 50 -73 74 -73 8 0 14 -6 14 -13 0 -8 14 -33 31 -57 23 -32 49 -50
105 -76 135 -63 128 -98 -44 -247 -31 -26 -35 -47 -9 -47 23 0 90 41 135 83
72 67 84 80 94 109 17 46 127 68 148 29 13 -25 13 -97 -1 -122 -10 -19 -10
-19 -37 1 -24 20 -27 20 -38 5 -7 -9 -10 -23 -7 -30 2 -8 -11 -29 -30 -47 -33
-32 -54 -74 -44 -85 3 -3 16 5 29 17 13 12 38 28 56 36 32 13 35 12 71 -17 21
-16 44 -40 50 -52 12 -22 21 -167 11 -167 -17 0 -55 79 -55 114 0 57 -27 61
-54 8 -11 -21 -40 -63 -65 -92 -51 -60 -52 -65 -31 -117 8 -19 15 -39 15 -44
0 -13 -65 -11 -95 3 -25 11 -34 28 -15 28 6 0 10 9 10 20 0 11 -7 20 -15 20
-32 0 -127 -58 -149 -91 -63 -95 -86 -214 -41 -214 15 0 21 8 25 35 5 36 59
144 68 135 3 -2 13 0 24 6 27 15 43 1 23 -21 -20 -22 -16 -54 7 -58 9 -2 35 8
57 22 22 14 49 26 60 26 20 0 44 -45 41 -76 -7 -60 16 -58 94 8 71 60 106 97
106 111 0 6 3 8 6 5 14 -14 -28 -80 -70 -110 -25 -17 -46 -35 -46 -39 0 -4
-21 -15 -47 -24 -116 -41 -143 -57 -142 -84 1 -14 -14 -53 -35 -85 -20 -33
-36 -69 -36 -80 0 -10 -3 -16 -7 -12 -8 7 -9 11 -12 37 0 5 -5 7 -11 4 -15
-10 -12 -90 6 -135 27 -67 63 -48 64 34 0 16 3 27 6 23 15 -15 4 -108 -20
-154 -17 -35 -21 -54 -15 -65 11 -19 37 -14 56 11 10 13 12 10 13 -21 0 -20
-3 -38 -7 -40 -13 -5 -83 -96 -83 -106 0 -5 -7 -15 -15 -22 -8 -7 -15 -22 -15
-35 0 -12 -8 -29 -18 -38 -17 -16 -18 -11 -14 101 4 127 -5 172 -37 172 -22 0
-34 -23 -20 -37 11 -11 13 -172 4 -230 -4 -21 -18 -74 -32 -118 -26 -83 -33
-202 -17 -275 12 -57 9 -143 -7 -175 -8 -16 -32 -40 -54 -52 -22 -12 -53 -30
-70 -39 -29 -17 -29 -16 -57 17 -15 18 -28 39 -28 46 0 7 -9 17 -19 23 -17 9
-23 4 -47 -39 -14 -28 -33 -52 -42 -56 -8 -3 -31 5 -51 17 -20 13 -49 30 -65
38 -53 27 -69 110 -47 240 13 79 6 187 -18 246 -11 27 -23 70 -27 95 -9 44
-10 237 -3 274 3 15 -2 21 -18 23 -31 5 -38 -28 -37 -170 0 -114 0 -117 -18
-101 -10 9 -18 24 -16 32 2 14 -25 67 -49 96 -55 67 -73 97 -73 121 l0 27 23
-21 c28 -27 34 -27 46 -4 7 14 4 31 -15 67 -18 36 -24 63 -23 104 l1 56 12
-50 c9 -39 16 -50 31 -50 29 0 54 89 46 163 -3 27 -21 10 -21 -20 -1 -32 -1
-31 -22 17 -12 28 -34 68 -49 91 -18 26 -24 45 -18 51 18 18 -15 42 -96 71
-44 16 -93 40 -109 53 -58 48 -96 91 -96 110 0 15 7 11 35 -20 20 -21 60 -58
90 -81 63 -49 91 -49 80 0 -8 36 16 80 43 80 10 0 34 -11 54 -25 41 -28 58
-31 75 -14 13 13 -3 59 -21 59 -6 0 -6 4 1 11 18 18 69 -7 83 -42 7 -15 18
-34 26 -40 8 -6 14 -24 14 -39 0 -41 10 -60 30 -60 46 0 13 146 -53 231 -32
41 -132 88 -150 70 -8 -8 -7 -15 6 -28 16 -16 15 -18 -14 -30 -33 -14 -81 -17
-92 -7 -3 4 0 22 8 41 22 53 19 66 -33 130 -27 32 -55 72 -63 88 -9 19 -22 30
-34 30 -17 0 -20 -7 -20 -46 0 -34 -7 -54 -28 -82 -15 -20 -29 -37 -30 -37 -1
0 0 37 3 82 6 87 14 108 60 145 44 36 54 36 109 -2 29 -19 55 -35 56 -35 14 0
-22 64 -49 87 -20 18 -32 37 -31 53 0 31 -29 39 -55 15 -22 -20 -28 -11 -35
48 -8 67 7 97 49 97 55 0 95 -22 117 -66 24 -45 115 -127 177 -157 34 -17 44
-19 55 -8 13 13 16 10 -88 95 -62 51 -81 95 -60 136 10 19 28 33 53 40 52 16
113 60 139 100 24 38 31 46 82 89 40 32 44 69 18 136 -15 39 -15 40 6 48 55
22 184 43 212 36 17 -4 55 -12 85 -19z m-875 -993 c29 -50 32 -66 9 -42 -9 8
-24 13 -33 10 -14 -4 -16 1 -13 35 2 22 6 40 8 40 2 0 15 -20 29 -43z m1550
-1 c5 -34 3 -37 -15 -31 -15 5 -25 -2 -41 -29 -36 -62 -32 -39 7 34 20 39 39
69 41 67 2 -2 6 -21 8 -41z m-2185 -556 c15 -16 30 -39 33 -51 6 -21 5 -21
-20 2 -37 35 -66 79 -53 79 7 0 24 -13 40 -30z m2819 9 c-12 -23 -62 -70 -67
-64 -7 7 29 64 45 74 28 16 35 13 22 -10z m-2410 -98 c-20 -57 -151 -67 -262
-19 -72 32 -83 42 -32 31 65 -13 216 -8 255 10 43 19 52 14 39 -22z m2136 4
c50 0 105 4 123 8 21 6 32 5 32 -2 0 -6 -7 -11 -15 -11 -9 0 -42 -11 -75 -25
-107 -45 -231 -25 -238 38 l-3 27 43 -17 c29 -12 72 -17 133 -18z m-1716 -98
c-8 -7 -454 -369 -474 -385 -150 -124 -195 -162 -225 -189 -19 -18 -39 -33
-44 -33 -5 0 -1 -10 10 -22 l18 -23 -24 22 c-13 12 -22 24 -19 26 2 2 69 57
149 123 80 65 165 135 189 154 23 19 51 42 61 50 10 8 35 29 56 45 20 17 42
35 48 40 45 43 250 204 254 200 3 -3 3 -6 1 -8z m1209 -59 c42 -35 85 -71 97
-80 11 -9 90 -74 175 -144 85 -69 175 -143 200 -164 35 -29 155 -128 179 -147
3 -2 -2 -9 -9 -16 -8 -6 -12 -8 -8 -4 8 11 -33 48 -272 241 -74 61 -143 117
-152 125 -9 9 -23 21 -30 26 -76 61 -168 134 -188 151 -72 62 -84 73 -77 74 5
0 43 -28 85 -62z m756 -526 c15 -18 14 -21 -19 -55 -30 -31 -38 -35 -54 -25
-18 11 -17 14 13 54 17 24 34 43 37 44 3 0 13 -8 23 -18z m-2766 -35 c27 -39
29 -44 14 -54 -13 -8 -24 -6 -44 9 -16 11 -28 26 -28 34 0 8 -5 14 -12 14 -6
0 -3 9 7 20 10 11 21 20 25 20 4 0 21 -19 38 -43z m2921 -148 c125 -100 192
-155 214 -174 7 -5 68 -55 137 -110 69 -55 127 -102 130 -105 4 -4 76 -62 173
-140 11 -8 35 -30 56 -47 20 -18 39 -33 44 -33 11 0 9 -38 -3 -45 -5 -3 -137
99 -292 227 -265 219 -425 350 -456 373 -13 10 -22 20 -50 50 -22 25 -35 6
-16 -23 l18 -27 -40 29 c-66 50 -96 76 -86 76 5 0 15 11 22 25 7 14 15 25 18
25 3 0 61 -46 131 -101z m-2985 64 l23 -27 -60 -48 c-63 -51 -82 -61 -52 -28
13 14 15 24 8 31 -8 8 -15 6 -24 -6 -21 -25 -23 -26 -194 -166 -88 -72 -174
-143 -192 -158 -149 -124 -397 -327 -403 -329 -8 -3 -25 37 -18 42 24 19 277
224 432 350 347 282 451 365 454 366 2 0 13 -12 26 -27z"/>
<path d="M4266 6861 c-39 -40 -29 -61 12 -26 30 25 43 55 24 55 -5 0 -21 -13
-36 -29z"/>
<path d="M4410 6828 c-101 -45 -196 -130 -226 -202 -14 -33 -28 -48 -54 -60
-19 -8 -46 -26 -60 -39 -26 -24 -58 -102 -47 -113 4 -4 21 6 40 22 18 17 54
38 81 48 46 18 49 18 82 0 19 -10 49 -31 67 -46 41 -36 57 -35 57 1 0 33 12
40 57 34 39 -6 86 -56 114 -120 22 -52 44 -53 45 -2 0 29 4 34 24 34 34 0 35
21 2 40 -16 10 -34 26 -40 36 -13 20 10 48 118 141 44 38 52 49 41 57 -11 7
-23 3 -43 -14 -17 -14 -35 -21 -47 -18 -14 3 -32 -6 -58 -31 -21 -21 -54 -45
-73 -55 -32 -17 -40 -18 -100 -4 -86 19 -130 39 -130 58 0 27 27 68 71 110 40
38 41 38 20 8 -39 -58 -13 -53 48 8 35 34 68 59 80 59 12 0 21 4 21 9 0 17
-19 22 -41 11 -20 -11 -20 -11 -4 14 16 25 16 26 -1 25 -11 0 -30 -5 -44 -11z"/>
<path d="M4140 6745 c-99 -78 -118 -100 -129 -146 -7 -24 -18 -58 -26 -75 -7
-18 -11 -35 -8 -38 6 -5 87 93 128 155 11 17 37 51 58 75 20 25 37 52 37 60 0
18 4 20 -60 -31z"/>
<path d="M4505 6766 c-44 -19 -160 -130 -151 -145 5 -8 31 10 78 54 39 36 76
65 83 65 16 0 39 27 28 33 -5 3 -22 0 -38 -7z"/>
<path d="M4914 6681 c-54 -39 -98 -88 -86 -95 9 -5 134 96 140 115 6 17 -15 9
-54 -20z"/>
<path d="M5079 6491 c-24 -16 -55 -39 -68 -52 -38 -36 -6 -36 39 0 21 17 50
36 64 42 14 7 26 16 26 20 0 20 -21 16 -61 -10z"/>
<path d="M5094 6428 c-16 -12 -31 -23 -33 -24 -1 -2 0 -7 3 -13 8 -12 72 26
80 47 8 19 -18 14 -50 -10z"/>
<path d="M4289 6038 c-1 -2 -3 -30 -5 -62 -2 -33 -8 -73 -14 -89 -21 -61 -5
-93 20 -39 17 37 26 192 11 192 -6 0 -11 -1 -12 -2z"/>
<path d="M4346 5818 c-22 -79 -24 -94 -17 -101 12 -12 29 21 37 72 5 28 3 41
-5 41 -6 0 -13 -6 -15 -12z"/>
<path d="M3953 5709 c-9 -9 -1 -25 34 -65 25 -30 49 -54 53 -54 32 0 6 87 -34
115 -25 18 -38 19 -53 4z"/>
<path d="M4076 5541 c-16 -17 -23 -31 -18 -35 6 -4 13 -2 17 4 12 20 26 10 15
-11 -17 -30 -1 -38 21 -10 20 24 21 72 3 78 -6 2 -22 -10 -38 -26z"/>
<path d="M4130 5500 c-8 -15 -9 -25 -2 -32 14 -14 33 24 22 41 -6 11 -11 8
-20 -9z"/>
<path d="M4161 5381 c-11 -19 -3 -31 80 -116 97 -101 122 -116 146 -92 24 24
6 55 -55 94 -32 19 -80 58 -109 85 -49 49 -51 50 -62 29z"/>
<path d="M6990 6881 c0 -9 57 -71 65 -71 14 0 2 32 -20 55 -26 25 -45 32 -45
16z"/>
<path d="M6845 6819 c6 -17 3 -20 -16 -17 -33 5 -35 -19 -1 -26 27 -7 122 -90
122 -108 0 -4 5 -8 10 -8 21 0 9 31 -27 72 l-38 43 41 -35 c61 -53 106 -115
102 -142 -3 -26 -36 -45 -93 -54 -60 -9 -74 -12 -85 -19 -14 -9 -58 17 -112
65 -26 23 -56 40 -65 39 -10 -2 -34 7 -53 19 -25 16 -36 18 -42 9 -7 -12 -7
-13 90 -97 35 -30 68 -63 74 -73 10 -19 10 -18 -52 -70 -26 -21 -17 -39 15
-31 22 5 23 3 22 -32 -3 -61 24 -56 51 9 35 84 79 116 150 108 6 0 12 -14 12
-31 0 -39 18 -39 68 3 69 58 92 63 157 33 31 -14 65 -36 75 -48 27 -33 36 -15
19 40 -13 41 -23 52 -72 82 -45 27 -63 47 -84 89 -34 65 -103 130 -185 170
-73 37 -92 39 -83 10z"/>
<path d="M7100 6778 c0 -6 18 -33 40 -59 22 -26 40 -52 40 -58 0 -6 15 -28 33
-48 18 -21 49 -59 69 -85 19 -26 38 -45 41 -42 5 6 -27 114 -46 153 -14 28
-177 156 -177 139z"/>
<path d="M6761 6771 c-9 -6 1 -16 31 -34 24 -14 65 -48 93 -76 27 -28 53 -51
57 -51 22 0 2 33 -50 82 -65 62 -112 90 -131 79z"/>
<path d="M6330 6702 c0 -14 139 -122 145 -112 7 11 4 15 -69 78 -45 39 -76 53
-76 34z"/>
<path d="M6166 6513 c-11 -11 -6 -23 8 -23 7 0 36 -18 64 -40 46 -37 72 -49
72 -34 0 13 -93 87 -122 97 -9 3 -19 3 -22 0z"/>
<path d="M6160 6447 c0 -19 67 -70 81 -62 10 7 -28 46 -63 66 -14 7 -18 6 -18
-4z"/>
<path d="M6990 5988 c0 -48 21 -153 34 -165 2 -3 9 -2 15 1 7 5 7 15 0 34 -6
15 -14 60 -18 101 -7 91 -31 113 -31 29z"/>
<path d="M6935 5794 c3 -20 10 -47 15 -60 12 -31 35 -32 26 -1 -3 12 -9 39
-12 60 -4 23 -12 37 -21 37 -12 0 -14 -8 -8 -36z"/>
<path d="M7294 5702 c-28 -24 -44 -55 -44 -86 0 -32 14 -33 38 -5 9 12 29 35
45 51 31 33 33 43 11 52 -22 9 -26 7 -50 -12z"/>
<path d="M7184 5555 c3 -8 1 -15 -4 -15 -16 0 -11 -23 10 -48 26 -32 45 -19
23 15 -17 25 -17 26 5 12 33 -20 39 -2 8 26 -30 28 -51 33 -42 10z"/>
<path d="M7150 5492 c0 -11 7 -23 16 -26 11 -4 15 0 12 16 -4 28 -28 36 -28
10z"/>
<path d="M7077 5349 c-23 -23 -70 -59 -104 -80 -33 -22 -63 -45 -66 -52 -8
-21 11 -57 30 -57 18 0 117 90 181 163 62 72 28 94 -41 26z"/>
<path d="M5648 6348 c0 -7 -3 -26 -5 -43 -2 -16 -5 -61 -7 -100 -1 -38 -7 -79
-12 -90 -12 -24 -10 -68 7 -106 9 -23 8 -32 -5 -51 -18 -25 -22 -113 -6 -123
7 -4 9 -36 7 -81 -3 -52 -1 -79 9 -91 23 -31 17 -43 -24 -43 -32 0 -41 -5 -53
-27 -8 -16 -17 -32 -22 -38 -43 -57 -65 -101 -56 -116 6 -11 5 -20 -1 -24 -13
-8 -13 -45 0 -45 15 0 32 40 28 65 -3 14 2 26 13 33 9 6 31 36 49 67 29 51 33
55 46 38 16 -22 18 -57 3 -84 -7 -15 -7 -24 1 -35 9 -9 10 -34 5 -79 -8 -78 3
-177 19 -172 6 2 11 27 12 58 0 30 3 83 7 119 4 36 3 71 -2 79 -5 8 -4 27 2
46 11 38 44 53 62 29 6 -9 17 -14 25 -12 8 2 14 -1 15 -7 0 -5 9 -24 18 -42 9
-18 17 -38 17 -46 0 -8 7 -20 15 -27 8 -7 13 -16 10 -20 -6 -10 31 -57 39 -50
6 7 -36 142 -60 190 -19 38 -33 52 -46 44 -4 -3 -8 -1 -8 5 0 18 -41 34 -53
22 -24 -24 -36 -12 -19 19 16 28 16 31 -1 60 -15 25 -18 42 -12 89 5 44 3 66
-9 89 -17 32 -15 48 7 102 13 31 13 40 -1 83 -12 39 -13 52 -2 71 6 13 14 59
16 102 2 44 4 86 5 94 1 27 -7 54 -19 58 -7 2 -13 -2 -14 -10z"/>
<path d="M5342 6137 c-22 -23 -29 -47 -14 -47 10 0 62 53 62 63 0 15 -28 6
-48 -16z"/>
<path d="M5917 6154 c-7 -7 43 -64 55 -64 15 0 8 26 -12 48 -21 23 -32 27 -43
16z"/>
<path d="M5080 5780 c6 -11 15 -20 20 -20 5 0 23 -20 40 -45 18 -26 39 -45 49
-45 10 0 24 -7 31 -15 7 -8 19 -15 26 -15 24 0 15 20 -18 40 -36 20 -35 20
-92 79 -43 44 -75 56 -56 21z"/>
<path d="M6158 5752 c-23 -26 -60 -58 -80 -71 -38 -23 -49 -41 -25 -41 6 0 21
7 31 15 11 8 28 15 37 15 10 0 20 9 24 19 3 11 24 36 45 58 43 41 49 53 26 53
-8 0 -34 -22 -58 -48z"/>
<path d="M5235 5748 c-12 -30 103 -218 132 -218 19 0 16 7 -16 48 -16 20 -45
69 -66 107 -43 83 -43 82 -50 63z"/>
<path d="M6053 5749 c-7 -8 -26 -43 -43 -77 -17 -34 -44 -77 -60 -96 -17 -18
-30 -36 -30 -40 0 -14 28 -4 47 17 32 33 105 174 101 193 -3 15 -5 15 -15 3z"/>
<path d="M5459 5243 c-5 -42 5 -325 14 -383 18 -115 15 -295 -5 -355 -24 -70
-26 -120 -8 -190 11 -40 15 -88 13 -145 -3 -72 0 -90 17 -117 27 -44 48 -42
67 7 9 22 20 40 24 40 5 0 17 17 28 38 23 45 21 140 -5 230 -8 29 -17 72 -19
95 -3 38 -3 40 10 22 31 -43 36 -47 51 -34 10 8 14 8 14 0 0 -21 18 -11 39 22
l21 32 0 -31 c0 -17 -7 -53 -15 -80 -34 -110 -36 -226 -5 -263 11 -14 30 -45
41 -69 23 -49 41 -51 71 -11 17 22 20 42 19 123 -1 58 5 120 14 154 16 65 13
108 -12 185 -21 62 -24 226 -6 332 18 103 25 405 9 405 -13 0 -36 -139 -41
-255 -2 -39 -15 -104 -30 -148 -14 -43 -23 -83 -19 -88 4 -7 -49 -165 -60
-176 -1 -1 0 27 2 62 3 48 0 71 -12 90 -19 29 -22 167 -5 212 7 19 7 40 0 68
-8 32 -19 118 -21 158 0 4 -6 7 -13 7 -16 0 -13 -82 4 -166 8 -37 8 -56 0 -72
-6 -11 -11 -66 -11 -121 0 -56 -4 -103 -10 -106 -6 -4 -8 -33 -5 -73 l5 -67
-35 90 c-19 50 -31 91 -27 93 4 1 -4 39 -19 85 -16 47 -28 105 -28 137 -1 74
-32 270 -42 270 -5 0 -9 -3 -10 -7z m342 -796 c9 -34 8 -56 -6 -117 -11 -50
-16 -101 -13 -148 3 -40 3 -72 1 -72 -9 0 -45 43 -52 63 -11 29 -4 108 16 182
9 33 18 79 21 102 5 51 17 47 33 -10z m-263 -4 c1 -16 9 -52 18 -82 8 -30 16
-87 17 -128 2 -67 0 -75 -26 -100 l-28 -28 2 70 c1 39 -1 100 -6 137 -7 68 0
158 13 158 4 0 9 -12 10 -27z"/>
<path d="M5360 4983 c0 -10 17 -78 32 -126 10 -33 30 -48 29 -22 -2 42 -37
155 -48 155 -7 0 -13 -3 -13 -7z"/>
<path d="M5897 4909 c-18 -76 -17 -104 1 -83 10 10 42 126 42 149 0 8 -6 15
-13 15 -7 0 -19 -32 -30 -81z"/>
<path d="M5554 4946 c-7 -17 1 -110 10 -125 15 -24 21 -1 18 68 -3 66 -15 90
-28 57z"/>
<path d="M5722 4883 c-1 -72 0 -76 14 -58 10 14 14 37 12 74 -5 86 -24 73 -26
-16z"/>
<path d="M5430 4088 c0 -37 36 -117 57 -125 25 -10 25 4 -1 44 -13 21 -28 55
-31 76 -9 45 -25 49 -25 5z"/>
<path d="M5846 4082 c-3 -22 -17 -55 -30 -75 -31 -46 -13 -64 20 -21 23 28 47
111 38 126 -11 18 -22 6 -28 -30z"/>
<path d="M2855 6026 c-53 -20 -120 -92 -136 -147 -9 -31 -13 -132 -13 -349 0
-268 2 -312 18 -362 32 -98 102 -149 212 -153 77 -2 125 17 178 71 47 49 65
111 68 244 l3 105 -105 0 -105 0 -1 -75 c-2 -149 -3 -158 -21 -164 -9 -4 -21
-2 -27 4 -13 13 -17 604 -5 638 10 27 49 30 50 5 1 -10 2 -67 4 -128 1 -60 3
-115 4 -122 1 -8 31 -11 104 -10 l102 2 -2 123 c-3 185 -34 261 -126 309 -44
22 -152 27 -202 9z"/>
<path d="M8202 5528 l3 -493 103 -1 102 0 0 203 c0 227 -8 205 77 205 23 0 43
5 45 11 2 7 4 50 3 97 l0 85 -62 3 -63 3 0 84 0 84 68 3 67 3 3 103 3 102
-176 0 -175 0 2 -492z"/>
<path d="M4793 3619 c-79 -15 -123 -48 -165 -129 -23 -44 -23 -49 -23 -365 0
-226 4 -332 13 -361 28 -94 97 -151 194 -161 104 -10 189 34 234 123 21 44 26
70 31 173 l5 121 -105 0 -105 0 -1 -112 c-2 -123 -13 -155 -45 -123 -14 15
-16 52 -16 325 0 170 3 315 6 324 7 18 39 22 49 6 3 -6 6 -69 6 -140 l-1 -130
106 0 107 0 -5 138 c-6 156 -18 196 -76 255 -48 50 -127 71 -209 56z"/>
<path d="M5205 3600 c-6 -11 -14 -68 -20 -140 -3 -41 -8 -86 -10 -100 -2 -14
-7 -56 -10 -95 -3 -38 -8 -81 -10 -95 -2 -14 -7 -56 -10 -95 -4 -38 -9 -86
-11 -105 -2 -19 -6 -57 -9 -85 -2 -27 -7 -68 -9 -90 -3 -22 -8 -70 -11 -107
l-7 -68 106 0 c58 0 106 1 107 3 0 1 3 38 6 82 3 44 7 82 9 84 2 2 17 5 34 7
30 4 30 3 31 -44 1 -26 2 -65 3 -87 l2 -40 107 -3 c64 -2 107 1 107 7 0 5 -4
43 -10 83 -5 40 -12 96 -15 123 -3 28 -8 68 -10 90 -3 22 -7 58 -9 80 -8 73
-47 410 -51 435 -2 14 -7 55 -10 93 -4 37 -10 68 -14 68 -23 4 -283 4 -286 -1z
m159 -385 c4 -49 9 -123 12 -162 l6 -73 -30 0 c-26 0 -30 3 -27 23 2 12 7 67
11 122 4 55 8 103 10 108 1 4 2 24 3 44 2 60 9 34 15 -62z"/>
<path d="M5642 3596 c-8 -13 -9 -955 -1 -967 3 -6 44 -9 90 -7 l84 3 2 215 c1
118 3 235 4 260 1 25 15 -72 33 -215 l31 -260 59 -3 c32 -2 62 1 66 5 5 4 11
44 15 88 3 44 10 112 15 150 5 39 12 104 16 145 16 173 20 150 19 -100 0 -146
1 -271 3 -277 3 -9 31 -13 93 -13 l89 0 0 493 0 492 -129 0 c-72 0 -132 -3
-135 -6 -3 -3 -9 -34 -12 -70 -3 -35 -7 -75 -9 -89 -1 -14 -6 -59 -10 -100 -8
-87 -12 -111 -20 -118 -4 -4 -9 39 -7 59 1 5 -37 324 -38 324 -16 6 -254 -3
-258 -9z"/>
<path d="M6342 3602 c-9 -3 -12 -120 -12 -493 l0 -489 104 0 105 0 1 192 c0
106 3 194 5 197 3 2 30 5 61 7 67 4 111 27 139 74 18 32 20 52 20 210 0 161
-2 178 -22 216 -37 69 -85 86 -252 88 -75 2 -142 1 -149 -2z m237 -186 c16
-19 16 -193 0 -212 -6 -8 -18 -14 -25 -14 -11 0 -14 25 -14 120 0 95 3 120 14
120 7 0 19 -6 25 -14z"/>
</g>
</svg>
